<svg xmlns="http://www.w3.org/2000/svg" width="512" height="512" viewBox="0 0 512 512" fill="none">
<rect x="0" y="0" width="512" height="512" rx="110" fill="#000000"/>
<g fill="#FFFFFF">
<path d="M135 0H764C1100 0 1276 175 1276 411C1276 632 1118 764 950 772V787C1103 821 1218 930 1218 1107C1218 1330 1053 1490 726 1490H135ZM440 251V655H712C865 655 962 565 962 440C962 327 883 251 704 251ZM440 864V1241H687C830 1241 909 1167 909 1058C909 938 812 864 681 864Z" transform="translate(57.094,328.000) scale(0.117188,-0.117188)"/>
<path d="M449 0H798L995 762C1024 875 1042 994 1061 1118C1082 990 1102 869 1129 762L1327 0H1675L2076 1490H1742L1569 757C1539 621 1513 461 1489 309C1462 461 1435 621 1402 757L1221 1490H904L722 757C688 620 662 458 635 305C611 458 585 620 555 757L382 1490H49Z" transform="translate(205.883,328.000) scale(0.117188,-0.117188)"/>
</g></svg>